<svg width="79" height="79" xmlns="http://www.w3.org/2000/svg" xmlns:xlink="http://www.w3.org/1999/xlink"><defs><filter x="0%" y="-.4%" width="100.3%" height="100.3%" filterUnits="objectBoundingBox" id="b"><feOffset dy="3" in="SourceAlpha" result="shadowOffsetInner1"/><feComposite in="shadowOffsetInner1" in2="SourceAlpha" operator="arithmetic" k2="-1" k3="1" result="shadowInnerInner1"/><feColorMatrix values="0 0 0 0 0 0 0 0 0 0.003921569 0 0 0 0 0.003921569 0 0 0 0.1 0" in="shadowInnerInner1"/></filter><path d="M40.66 1.21a39.12 39.12 0 110 78.25 39.12 39.12 0 010-78.25z" id="a"/></defs><g fill="none" fill-rule="evenodd"><g transform="translate(-1 -1)"><use fill="#FFF" xlink:href="#a"/><use fill="#D7373B" xlink:href="#a"/><use fill="#000" filter="url(#b)" xlink:href="#a"/></g><path d="M47 29H32a3 3 0 00-3 3v15a3 3 0 003 3h15a3 3 0 003-3V32a3 3 0 00-3-3zm-7.5 7a3.5 3.5 0 110 7 3.5 3.5 0 010-7zM47 47H32v-9h1.18a6.5 6.5 0 1012.64 0H47v9zm0-11h-4v-4h4v4z" fill-rule="nonzero" opacity=".3" fill="#FFF"/></g></svg>