<svg width="79" height="79" xmlns="http://www.w3.org/2000/svg" xmlns:xlink="http://www.w3.org/1999/xlink"><defs><path d="M40.66 1.21a39.12 39.12 0 110 78.25 39.12 39.12 0 010-78.25z" id="a"/></defs><g fill="none" fill-rule="evenodd"><g transform="translate(-1 -1)"><use fill="#FFF" xlink:href="#a"/><use fill="#E74246" xlink:href="#a"/></g><path d="M47 29H32a3 3 0 00-3 3v15a3 3 0 003 3h15a3 3 0 003-3V32a3 3 0 00-3-3zm-7.5 7a3.5 3.5 0 110 7 3.5 3.5 0 010-7zM47 47H32v-9h1.18a6.5 6.5 0 1012.64 0H47v9zm0-11h-4v-4h4v4z" fill-rule="nonzero" fill="#FFF"/></g></svg>